<?xml version="1.0" encoding="utf-8"?>
<!-- Generator: Adobe Illustrator 24.3.0, SVG Export Plug-In . SVG Version: 6.00 Build 0)  -->
<svg version="1.1" id="Layer_1" xmlns="http://www.w3.org/2000/svg" xmlns:xlink="http://www.w3.org/1999/xlink" x="0px" y="0px"
	 viewBox="0 0 475 555" style="enable-background:new 0 0 475 555;" xml:space="preserve">
<style type="text/css">
	.st0{fill:#FFFFFF;}
	.st1{fill:#F7EEE7;}
	.st2{fill:#FF6359;}
	.st3{fill:#FFBF2F;}
	.st4{fill:#27CC41;}
	.st5{fill:#EAD5C3;}
	.st6{opacity:0.4;fill:#EAD5C3;enable-background:new    ;}
	.st7{fill:#FAC601;}
</style>
<path class="st0" d="M475,45v452H53v-91h152.3c10.9,0,19.7-8.8,19.7-19.7c0-1.5-0.2-3-0.5-4.5c-2.1,8.9-10,15.2-19.1,15.2H53V45H475
	z"/>
<path class="st1" d="M475,19.7V45H53V19.7C53,8.8,61.8,0,72.7,0c0,0,0,0,0,0h382.7C466.2,0,475,8.8,475,19.7
	C475,19.7,475,19.7,475,19.7z"/>
<circle class="st2" cx="88" cy="24" r="7"/>
<circle class="st3" cx="106" cy="24" r="7"/>
<circle class="st4" cx="124" cy="24" r="7"/>
<path class="st1" d="M53,497h422v38.3c0,10.9-8.8,19.7-19.7,19.7H72.7c-10.9,0-19.7-8.8-19.7-19.7V497z"/>
<circle class="st1" cx="264.5" cy="163.5" r="64.5"/>
<path class="st5" d="M264.4,135c-8.7,0-14.4,3.6-18.8,10c-0.8,1.2-0.6,2.7,0.6,3.6l4.7,3.6c1.1,0.9,2.8,0.7,3.6-0.5
	c2.7-3.4,4.8-5.4,9-5.4c3.4,0,7.5,2.2,7.5,5.4c0,2.5-2,3.7-5.4,5.6c-3.9,2.2-9,4.9-9,11.6v1c0,1.4,1.2,2.6,2.6,2.6c0,0,0,0,0,0h7.9
	c1.4,0,2.6-1.2,2.6-2.6c0,0,0,0,0,0v-0.6c0-4.7,13.7-4.9,13.7-17.6C283.6,142.2,273.7,135,264.4,135z M263.3,175.8
	c-4.2,0-7.6,3.4-7.6,7.6c0,4.2,3.4,7.6,7.6,7.6c4.2,0,7.6-3.4,7.6-7.6c0,0,0,0,0,0C270.9,179.2,267.5,175.9,263.3,175.8L263.3,175.8
	z"/>
<path class="st6" d="M187,320H342c1.6,0,3,1.3,3,3v1.1c0,1.6-1.3,3-3,3H187c-1.6,0-3-1.3-3-3V323C184,321.3,185.3,320,187,320z"/>
<path class="st6" d="M187,338H342c1.6,0,3,1.3,3,3v1.1c0,1.6-1.3,3-3,3H187c-1.6,0-3-1.3-3-3V341C184,339.3,185.3,338,187,338z"/>
<path class="st6" d="M187,302H342c1.6,0,3,1.3,3,3v1.1c0,1.6-1.3,3-3,3H187c-1.6,0-3-1.3-3-3V305C184,303.3,185.3,302,187,302z"/>
<path class="st6" d="M187,434H342c1.6,0,3,1.3,3,3v1.1c0,1.6-1.3,3-3,3H187c-1.6,0-3-1.3-3-3V437C184,435.3,185.3,434,187,434z"/>
<path class="st6" d="M187,452H342c1.6,0,3,1.3,3,3v1.1c0,1.6-1.3,3-3,3H187c-1.6,0-3-1.3-3-3V455C184,453.3,185.3,452,187,452z"/>
<path class="st6" d="M187,416H342c1.6,0,3,1.3,3,3v1.1c0,1.6-1.3,3-3,3H187c-1.6,0-3-1.3-3-3V419C184,417.3,185.3,416,187,416z"/>
<path class="st7" d="M225,377.3c0,1.5-0.2,3-0.5,4.5c-2.1,8.9-10,15.2-19.1,15.2H19.7c-9.1,0-17-6.3-19.1-15.2
	c-0.4-1.5-0.5-3-0.5-4.5c0-10.9,8.8-19.7,19.7-19.7h185.7C216.2,357.7,225,366.5,225,377.3L225,377.3z"/>
<path class="st6" d="M225,386.3c0,10.9-8.8,19.7-19.7,19.7H53v-9h152.3c9.1,0,17-6.3,19.1-15.2C224.8,383.3,225,384.8,225,386.3z"/>
<path class="st5" d="M197,264h85c5,0,9,4,9,9l0,0c0,5-4,9-9,9h-85c-5,0-9-4-9-9l0,0C188,268,192,264,197,264z"/>
<circle class="st7" cx="315" cy="201" r="14"/>
<path class="st5" d="M84,524H129c1.6,0,3,1.3,3,3v1.1c0,1.6-1.3,3-3,3H84c-1.6,0-3-1.3-3-3V527C81,525.3,82.3,524,84,524z"/>
<path class="st5" d="M147,524H192c1.6,0,3,1.3,3,3v1.1c0,1.6-1.3,3-3,3H147c-1.6,0-3-1.3-3-3V527C144,525.3,145.3,524,147,524z"/>
<path class="st5" d="M210,524H255c1.6,0,3,1.3,3,3v1.1c0,1.6-1.3,3-3,3H210c-1.6,0-3-1.3-3-3V527C207,525.3,208.3,524,210,524z"/>
</svg>
